<svg xmlns="http://www.w3.org/2000/svg" viewBox="0 0 351.44 303.77" preserveAspectRatio="none"><defs><style>.a{fill:#011;opacity:0.5;}.b{fill:#fff;}.c{fill:#00aeae;}</style></defs><polygon class="a" points="334.93 13.67 334.56 13.67 311.57 13.67 47.59 13.67 25.4 13.67 24.24 13.67 7.72 98.63 7.72 218.8 24.24 303.76 25.4 303.76 47.59 303.76 311.57 303.76 334.56 303.76 334.93 303.76 351.44 218.8 351.44 98.63 334.93 13.67"/><polygon class="b" points="327.2 4.6 326.84 4.6 303.85 4.6 39.87 4.6 17.68 4.6 16.51 4.6 0 89.57 0 209.73 16.51 294.7 17.68 294.7 39.87 294.7 303.85 294.7 326.84 294.7 327.2 294.7 343.72 209.73 343.72 89.57 327.2 4.6"/><polygon class="a" points="252.45 4.98 94.47 4.98 80.9 14.13 80.9 60.47 175.63 73.4 268.05 60.47 268.05 15.5 252.45 4.98"/><polygon class="c" points="247.22 0 89.23 0 75.67 9.15 75.67 55.48 170.4 68.42 262.82 55.48 262.82 10.52 247.22 0"/></svg>