<svg xmlns="http://www.w3.org/2000/svg" viewBox="0 0 127.51 105.19"><defs><style>.a{fill:#fff;}</style></defs><path class="a" d="M31.09,59.93l14,38.75s1.75,3.63,3.63,3.63,29.75-29,29.75-29l31-59.88L31.59,49.93Z"/><path class="a" d="M49.66,69.87,47,98.43s-1.13,8.75,7.62,0,17.13-15.5,17.13-15.5"/><path class="a" d="M31.35,61.31,2.55,51.93S-.89,50.54.22,47.37c.23-.65.69-1.21,2.06-2.17C8.66,40.75,120.39.6,120.39.6s3.15-1.06,5-.36a2.73,2.73,0,0,1,1.86,2,9.64,9.64,0,0,1,.25,2.54c0,.74-.1,1.43-.17,2.5-.68,11-21,92.92-21,92.92s-1.22,4.8-5.58,5a8,8,0,0,1-5.83-2.25c-8.57-7.37-38.18-27.26-44.72-31.64a1.24,1.24,0,0,1-.53-.88c-.1-.46.4-1,.4-1S101.6,23.55,103,18.74c.1-.37-.29-.55-.83-.39C98.71,19.61,39.35,57.09,32.8,61.23A3.13,3.13,0,0,1,31.35,61.31Z"/></svg>